# xmcd CD database file
#
# Track frame offsets:
#	150
#	13890
#	31460
#	47920
#	62517
#	76510
#	90100
#	101587
#	116730
#	131335
#	146085
#
# Disc length: 2111 seconds
#
# Revision: 0
# Processed by: cddbd v1.5.1PL0 Copyright (c) Steve Scherf et al.
# Submitted via: CDex 1.51
#
DISCID=85083d0b
DTITLE=Tin Star - Tin Star
DYEAR=1989
DGENRE=Country
TTITLE0=Northern Border
TTITLE1=Memory
TTITLE2=Brighter Than The Moon
TTITLE3=Wasn't That Something
TTITLE4=If I Was Sober
TTITLE5=Another You
TTITLE6=Someone Got Lucky
TTITLE7=Yesterday Tomorrow
TTITLE8=Happy Hour
TTITLE9=Circle Bar
TTITLE10=The Tin Star
EXTD=YEAR: 1989
EXTT0=
EXTT1=
EXTT2=
EXTT3=
EXTT4=
EXTT5=
EXTT6=
EXTT7=
EXTT8=
EXTT9=
EXTT10=
PLAYORDER=
